# xmcd
#
# Track frame offsets: 
#        150
#        15600
#        39405
#        61695
#        81885
#        103133
#        125641
#        146161
#
# Disc length: 2211 seconds
#
# Revision: 1
# Processed by: cddbd v1.5.2PL0 Copyright (c) Steve Scherf et al.
# Submitted via: ExactAudioCopy v1.1
#
DISCID=6808a108
DTITLE=UFO - The Wild, The Willing And The Innocent
DYEAR=1981
DGENRE=Hard Rock
TTITLE0=Chains Chains
TTITLE1=Long Gone
TTITLE2=The Wild The WIlling And The Innocent
TTITLE3=It's Killing Me
TTITLE4=Makin' Moves
TTITLE5=Lonely Heart
TTITLE6=Couldn't Get It Right
TTITLE7=Profession Of Violence
EXTD=YEAR: 1981
EXTT0=
EXTT1=
EXTT2=
EXTT3=
EXTT4=
EXTT5=
EXTT6=
EXTT7=
PLAYORDER=
